<?xml version="1.0" encoding="UTF-8" standalone="no"?>
<!DOCTYPE svg PUBLIC "-//W3C//DTD SVG 1.1//EN"
 "http://www.w3.org/Graphics/SVG/1.1/DTD/svg11.dtd">
<!-- Generated by graphviz version 2.36.0 (20140111.2315)
 -->
<!-- Title: controllers_diagram Pages: 1 -->
<svg width="906pt" height="920pt"
 viewBox="0.00 0.00 906.00 920.00" xmlns="http://www.w3.org/2000/svg" xmlns:xlink="http://www.w3.org/1999/xlink">
<g id="graph0" class="graph" transform="scale(1 1) rotate(0) translate(4 916)">
<title>controllers_diagram</title>
<polygon fill="white" stroke="none" points="-4,4 -4,-916 902,-916 902,4 -4,4"/>
<!-- _diagram_info -->
<g id="node1" class="node"><title>_diagram_info</title>
<text text-anchor="start" x="673" y="-258.6" font-family="Times,serif" font-size="13.00">Controllers diagram</text>
<text text-anchor="start" x="673" y="-244.6" font-family="Times,serif" font-size="13.00">Date: Feb 03 2015 &#45; 18:04</text>
<text text-anchor="start" x="673" y="-230.6" font-family="Times,serif" font-size="13.00">Generated by RailRoady 1.3.0</text>
<text text-anchor="start" x="673" y="-216.6" font-family="Times,serif" font-size="13.00">http://railroady.prestonlee.com</text>
</g>
<!-- Api::V1::WallsController -->
<g id="node2" class="node"><title>Api::V1::WallsController</title>
<path fill="none" stroke="black" d="M449,-304.5C449,-304.5 581,-304.5 581,-304.5 587,-304.5 593,-310.5 593,-316.5 593,-316.5 593,-535.5 593,-535.5 593,-541.5 587,-547.5 581,-547.5 581,-547.5 449,-547.5 449,-547.5 443,-547.5 437,-541.5 437,-535.5 437,-535.5 437,-316.5 437,-316.5 437,-310.5 443,-304.5 449,-304.5"/>
<text text-anchor="middle" x="515" y="-532.3" font-family="Times,serif" font-size="14.00">Api::V1::WallsController</text>
<polyline fill="none" stroke="black" points="437,-524.5 593,-524.5 "/>
<text text-anchor="start" x="445" y="-509.3" font-family="Times,serif" font-size="14.00">chat_users</text>
<text text-anchor="start" x="445" y="-494.3" font-family="Times,serif" font-size="14.00">connects</text>
<text text-anchor="start" x="445" y="-479.3" font-family="Times,serif" font-size="14.00">create</text>
<text text-anchor="start" x="445" y="-464.3" font-family="Times,serif" font-size="14.00">destroy</text>
<text text-anchor="start" x="445" y="-449.3" font-family="Times,serif" font-size="14.00">show</text>
<text text-anchor="start" x="445" y="-434.3" font-family="Times,serif" font-size="14.00">update</text>
<text text-anchor="start" x="445" y="-419.3" font-family="Times,serif" font-size="14.00">user_walls</text>
<text text-anchor="start" x="445" y="-404.3" font-family="Times,serif" font-size="14.00">wall_close</text>
<polyline fill="none" stroke="black" points="437,-396.5 593,-396.5 "/>
<polyline fill="none" stroke="black" points="437,-372.5 593,-372.5 "/>
<text text-anchor="start" x="445" y="-357.3" font-family="Times,serif" font-size="14.00">set_mobile_number</text>
<text text-anchor="start" x="445" y="-342.3" font-family="Times,serif" font-size="14.00">set_wall</text>
<text text-anchor="start" x="445" y="-327.3" font-family="Times,serif" font-size="14.00">truncate_wall_msg</text>
<text text-anchor="start" x="445" y="-312.3" font-family="Times,serif" font-size="14.00">wall_params</text>
</g>
<!-- Api::V1::CommunityController -->
<g id="node3" class="node"><title>Api::V1::CommunityController</title>
<path fill="none" stroke="black" d="M449,-133.5C449,-133.5 615,-133.5 615,-133.5 621,-133.5 627,-139.5 627,-145.5 627,-145.5 627,-260.5 627,-260.5 627,-266.5 621,-272.5 615,-272.5 615,-272.5 449,-272.5 449,-272.5 443,-272.5 437,-266.5 437,-260.5 437,-260.5 437,-145.5 437,-145.5 437,-139.5 443,-133.5 449,-133.5"/>
<text text-anchor="middle" x="532" y="-257.3" font-family="Times,serif" font-size="14.00">Api::V1::CommunityController</text>
<polyline fill="none" stroke="black" points="437,-249.5 627,-249.5 "/>
<text text-anchor="start" x="445" y="-234.3" font-family="Times,serif" font-size="14.00">group_list</text>
<text text-anchor="start" x="445" y="-219.3" font-family="Times,serif" font-size="14.00">suggestions</text>
<text text-anchor="start" x="445" y="-204.3" font-family="Times,serif" font-size="14.00">tag_list</text>
<text text-anchor="start" x="445" y="-189.3" font-family="Times,serif" font-size="14.00">top_tags</text>
<polyline fill="none" stroke="black" points="437,-181.5 627,-181.5 "/>
<polyline fill="none" stroke="black" points="437,-157.5 627,-157.5 "/>
</g>
<!-- Api::V1::ListingsController -->
<g id="node4" class="node"><title>Api::V1::ListingsController</title>
<path fill="none" stroke="black" d="M50,-703.5C50,-703.5 193,-703.5 193,-703.5 199,-703.5 205,-709.5 205,-715.5 205,-715.5 205,-829.5 205,-829.5 205,-835.5 199,-841.5 193,-841.5 193,-841.5 50,-841.5 50,-841.5 44,-841.5 38,-835.5 38,-829.5 38,-829.5 38,-715.5 38,-715.5 38,-709.5 44,-703.5 50,-703.5"/>
<text text-anchor="middle" x="121.5" y="-826.3" font-family="Times,serif" font-size="14.00">Api::V1::ListingsController</text>
<polyline fill="none" stroke="black" points="38,-818.5 205,-818.5 "/>
<text text-anchor="start" x="46" y="-803.3" font-family="Times,serif" font-size="14.00">create</text>
<text text-anchor="start" x="46" y="-788.3" font-family="Times,serif" font-size="14.00">update</text>
<text text-anchor="start" x="46" y="-773.3" font-family="Times,serif" font-size="14.00">user_listings</text>
<polyline fill="none" stroke="black" points="38,-765.5 205,-765.5 "/>
<polyline fill="none" stroke="black" points="38,-741.5 205,-741.5 "/>
<text text-anchor="start" x="46" y="-726.3" font-family="Times,serif" font-size="14.00">listing_params</text>
<text text-anchor="start" x="46" y="-711.3" font-family="Times,serif" font-size="14.00">set_listing</text>
</g>
<!-- Api::V1::UsersController -->
<g id="node5" class="node"><title>Api::V1::UsersController</title>
<path fill="none" stroke="black" d="M259,-190.5C259,-190.5 390,-190.5 390,-190.5 396,-190.5 402,-196.5 402,-202.5 402,-202.5 402,-601.5 402,-601.5 402,-607.5 396,-613.5 390,-613.5 390,-613.5 259,-613.5 259,-613.5 253,-613.5 247,-607.5 247,-601.5 247,-601.5 247,-202.5 247,-202.5 247,-196.5 253,-190.5 259,-190.5"/>
<text text-anchor="middle" x="324.5" y="-598.3" font-family="Times,serif" font-size="14.00">Api::V1::UsersController</text>
<polyline fill="none" stroke="black" points="247,-590.5 402,-590.5 "/>
<text text-anchor="start" x="255" y="-575.3" font-family="Times,serif" font-size="14.00">abuse</text>
<text text-anchor="start" x="255" y="-560.3" font-family="Times,serif" font-size="14.00">contacts</text>
<text text-anchor="start" x="255" y="-545.3" font-family="Times,serif" font-size="14.00">contacts_with_name</text>
<text text-anchor="start" x="255" y="-530.3" font-family="Times,serif" font-size="14.00">create</text>
<text text-anchor="start" x="255" y="-515.3" font-family="Times,serif" font-size="14.00">interests</text>
<text text-anchor="start" x="255" y="-500.3" font-family="Times,serif" font-size="14.00">recommendations</text>
<text text-anchor="start" x="255" y="-485.3" font-family="Times,serif" font-size="14.00">recommends</text>
<text text-anchor="start" x="255" y="-470.3" font-family="Times,serif" font-size="14.00">register_referral</text>
<text text-anchor="start" x="255" y="-455.3" font-family="Times,serif" font-size="14.00">send_sms_share</text>
<text text-anchor="start" x="255" y="-440.3" font-family="Times,serif" font-size="14.00">show</text>
<text text-anchor="start" x="255" y="-425.3" font-family="Times,serif" font-size="14.00">sms_serial_code</text>
<text text-anchor="start" x="255" y="-410.3" font-family="Times,serif" font-size="14.00">sms_share</text>
<text text-anchor="start" x="255" y="-395.3" font-family="Times,serif" font-size="14.00">tag_recommendations</text>
<text text-anchor="start" x="255" y="-380.3" font-family="Times,serif" font-size="14.00">tag_recommends</text>
<text text-anchor="start" x="255" y="-365.3" font-family="Times,serif" font-size="14.00">update</text>
<text text-anchor="start" x="255" y="-350.3" font-family="Times,serif" font-size="14.00">verify_missed_call</text>
<text text-anchor="start" x="255" y="-335.3" font-family="Times,serif" font-size="14.00">verify_serial_code</text>
<polyline fill="none" stroke="black" points="247,-327.5 402,-327.5 "/>
<polyline fill="none" stroke="black" points="247,-303.5 402,-303.5 "/>
<text text-anchor="start" x="255" y="-288.3" font-family="Times,serif" font-size="14.00">create_new_user</text>
<text text-anchor="start" x="255" y="-273.3" font-family="Times,serif" font-size="14.00">existing_user</text>
<text text-anchor="start" x="255" y="-258.3" font-family="Times,serif" font-size="14.00">save_verified_user</text>
<text text-anchor="start" x="255" y="-243.3" font-family="Times,serif" font-size="14.00">send_sms</text>
<text text-anchor="start" x="255" y="-228.3" font-family="Times,serif" font-size="14.00">set_mobile_number</text>
<text text-anchor="start" x="255" y="-213.3" font-family="Times,serif" font-size="14.00">user_create_params</text>
<text text-anchor="start" x="255" y="-198.3" font-family="Times,serif" font-size="14.00">user_params</text>
</g>
<!-- Api::V1::SearchController -->
<g id="node6" class="node"><title>Api::V1::SearchController</title>
<path fill="none" stroke="black" d="M69,-247.5C69,-247.5 206,-247.5 206,-247.5 212,-247.5 218,-253.5 218,-259.5 218,-259.5 218,-373.5 218,-373.5 218,-379.5 212,-385.5 206,-385.5 206,-385.5 69,-385.5 69,-385.5 63,-385.5 57,-379.5 57,-373.5 57,-373.5 57,-259.5 57,-259.5 57,-253.5 63,-247.5 69,-247.5"/>
<text text-anchor="middle" x="137.5" y="-370.3" font-family="Times,serif" font-size="14.00">Api::V1::SearchController</text>
<polyline fill="none" stroke="black" points="57,-362.5 218,-362.5 "/>
<text text-anchor="start" x="65" y="-347.3" font-family="Times,serif" font-size="14.00">search</text>
<text text-anchor="start" x="65" y="-332.3" font-family="Times,serif" font-size="14.00">show_active_cities</text>
<polyline fill="none" stroke="black" points="57,-324.5 218,-324.5 "/>
<polyline fill="none" stroke="black" points="57,-300.5 218,-300.5 "/>
<text text-anchor="start" x="65" y="-285.3" font-family="Times,serif" font-size="14.00">send_welcome_message</text>
<text text-anchor="start" x="65" y="-270.3" font-family="Times,serif" font-size="14.00">set_search_params</text>
<text text-anchor="start" x="65" y="-255.3" font-family="Times,serif" font-size="14.00">set_tag_ids</text>
</g>
<!-- Api::V1::NotificationsController -->
<g id="node7" class="node"><title>Api::V1::NotificationsController</title>
<path fill="none" stroke="black" d="M12,-95.5C12,-95.5 182,-95.5 182,-95.5 188,-95.5 194,-101.5 194,-107.5 194,-107.5 194,-192.5 194,-192.5 194,-198.5 188,-204.5 182,-204.5 182,-204.5 12,-204.5 12,-204.5 6,-204.5 -2.84217e-14,-198.5 -2.84217e-14,-192.5 -2.84217e-14,-192.5 -2.84217e-14,-107.5 -2.84217e-14,-107.5 -2.84217e-14,-101.5 6,-95.5 12,-95.5"/>
<text text-anchor="middle" x="97" y="-189.3" font-family="Times,serif" font-size="14.00">Api::V1::NotificationsController</text>
<polyline fill="none" stroke="black" points="-2.84217e-14,-181.5 194,-181.5 "/>
<text text-anchor="start" x="8" y="-166.3" font-family="Times,serif" font-size="14.00">index</text>
<text text-anchor="start" x="8" y="-151.3" font-family="Times,serif" font-size="14.00">update_seen_status</text>
<polyline fill="none" stroke="black" points="-2.84217e-14,-143.5 194,-143.5 "/>
<polyline fill="none" stroke="black" points="-2.84217e-14,-119.5 194,-119.5 "/>
</g>
<!-- Api::V1::RatingsController -->
<g id="node8" class="node"><title>Api::V1::RatingsController</title>
<path fill="none" stroke="black" d="M50,-418.5C50,-418.5 191,-418.5 191,-418.5 197,-418.5 203,-424.5 203,-430.5 203,-430.5 203,-574.5 203,-574.5 203,-580.5 197,-586.5 191,-586.5 191,-586.5 50,-586.5 50,-586.5 44,-586.5 38,-580.5 38,-574.5 38,-574.5 38,-430.5 38,-430.5 38,-424.5 44,-418.5 50,-418.5"/>
<text text-anchor="middle" x="120.5" y="-571.3" font-family="Times,serif" font-size="14.00">Api::V1::RatingsController</text>
<polyline fill="none" stroke="black" points="38,-563.5 203,-563.5 "/>
<text text-anchor="start" x="46" y="-548.3" font-family="Times,serif" font-size="14.00">create</text>
<text text-anchor="start" x="46" y="-533.3" font-family="Times,serif" font-size="14.00">destroy</text>
<text text-anchor="start" x="46" y="-518.3" font-family="Times,serif" font-size="14.00">show</text>
<text text-anchor="start" x="46" y="-503.3" font-family="Times,serif" font-size="14.00">update</text>
<text text-anchor="start" x="46" y="-488.3" font-family="Times,serif" font-size="14.00">user_ratings</text>
<polyline fill="none" stroke="black" points="38,-480.5 203,-480.5 "/>
<polyline fill="none" stroke="black" points="38,-456.5 203,-456.5 "/>
<text text-anchor="start" x="46" y="-441.3" font-family="Times,serif" font-size="14.00">rating_params</text>
<text text-anchor="start" x="46" y="-426.3" font-family="Times,serif" font-size="14.00">set_user</text>
</g>
<!-- Api::V1::PublicController -->
<g id="node9" class="node"><title>Api::V1::PublicController</title>
<path fill="none" stroke="black" d="M240,-38.5C240,-38.5 374,-38.5 374,-38.5 380,-38.5 386,-44.5 386,-50.5 386,-50.5 386,-150.5 386,-150.5 386,-156.5 380,-162.5 374,-162.5 374,-162.5 240,-162.5 240,-162.5 234,-162.5 228,-156.5 228,-150.5 228,-150.5 228,-50.5 228,-50.5 228,-44.5 234,-38.5 240,-38.5"/>
<text text-anchor="middle" x="307" y="-147.3" font-family="Times,serif" font-size="14.00">Api::V1::PublicController</text>
<polyline fill="none" stroke="black" points="228,-139.5 386,-139.5 "/>
<text text-anchor="start" x="236" y="-124.3" font-family="Times,serif" font-size="14.00">push</text>
<text text-anchor="start" x="236" y="-109.3" font-family="Times,serif" font-size="14.00">server_status</text>
<text text-anchor="start" x="236" y="-94.3" font-family="Times,serif" font-size="14.00">shares</text>
<polyline fill="none" stroke="black" points="228,-86.5 386,-86.5 "/>
<polyline fill="none" stroke="black" points="228,-62.5 386,-62.5 "/>
</g>
<!-- Api::V1::WallItemsController -->
<g id="node10" class="node"><title>Api::V1::WallItemsController</title>
<path fill="none" stroke="black" d="M639,-304.5C639,-304.5 797,-304.5 797,-304.5 803,-304.5 809,-310.5 809,-316.5 809,-316.5 809,-430.5 809,-430.5 809,-436.5 803,-442.5 797,-442.5 797,-442.5 639,-442.5 639,-442.5 633,-442.5 627,-436.5 627,-430.5 627,-430.5 627,-316.5 627,-316.5 627,-310.5 633,-304.5 639,-304.5"/>
<text text-anchor="middle" x="718" y="-427.3" font-family="Times,serif" font-size="14.00">Api::V1::WallItemsController</text>
<polyline fill="none" stroke="black" points="627,-419.5 809,-419.5 "/>
<text text-anchor="start" x="635" y="-404.3" font-family="Times,serif" font-size="14.00">add_tagged_users</text>
<text text-anchor="start" x="635" y="-389.3" font-family="Times,serif" font-size="14.00">create</text>
<text text-anchor="start" x="635" y="-374.3" font-family="Times,serif" font-size="14.00">destroy</text>
<polyline fill="none" stroke="black" points="627,-366.5 809,-366.5 "/>
<polyline fill="none" stroke="black" points="627,-342.5 809,-342.5 "/>
<text text-anchor="start" x="635" y="-327.3" font-family="Times,serif" font-size="14.00">set_wall</text>
<text text-anchor="start" x="635" y="-312.3" font-family="Times,serif" font-size="14.00">wall_item_params</text>
</g>
<!-- Api::V1::TagsController -->
<g id="node11" class="node"><title>Api::V1::TagsController</title>
<path fill="none" stroke="black" d="M734,-684.5C734,-684.5 860,-684.5 860,-684.5 866,-684.5 872,-690.5 872,-696.5 872,-696.5 872,-810.5 872,-810.5 872,-816.5 866,-822.5 860,-822.5 860,-822.5 734,-822.5 734,-822.5 728,-822.5 722,-816.5 722,-810.5 722,-810.5 722,-696.5 722,-696.5 722,-690.5 728,-684.5 734,-684.5"/>
<text text-anchor="middle" x="797" y="-807.3" font-family="Times,serif" font-size="14.00">Api::V1::TagsController</text>
<polyline fill="none" stroke="black" points="722,-799.5 872,-799.5 "/>
<text text-anchor="start" x="730" y="-784.3" font-family="Times,serif" font-size="14.00">all_user_tags</text>
<text text-anchor="start" x="730" y="-769.3" font-family="Times,serif" font-size="14.00">auto_suggestions</text>
<text text-anchor="start" x="730" y="-754.3" font-family="Times,serif" font-size="14.00">create</text>
<text text-anchor="start" x="730" y="-739.3" font-family="Times,serif" font-size="14.00">suggestions</text>
<polyline fill="none" stroke="black" points="722,-731.5 872,-731.5 "/>
<polyline fill="none" stroke="black" points="722,-707.5 872,-707.5 "/>
<text text-anchor="start" x="730" y="-692.3" font-family="Times,serif" font-size="14.00">tag_params</text>
</g>
<!-- Api::V1::BaseController -->
<g id="node12" class="node"><title>Api::V1::BaseController</title>
<path fill="none" stroke="black" d="M506,-589.5C506,-589.5 668,-589.5 668,-589.5 674,-589.5 680,-595.5 680,-601.5 680,-601.5 680,-775.5 680,-775.5 680,-781.5 674,-787.5 668,-787.5 668,-787.5 506,-787.5 506,-787.5 500,-787.5 494,-781.5 494,-775.5 494,-775.5 494,-601.5 494,-601.5 494,-595.5 500,-589.5 506,-589.5"/>
<text text-anchor="middle" x="587" y="-772.3" font-family="Times,serif" font-size="14.00">Api::V1::BaseController</text>
<polyline fill="none" stroke="black" points="494,-764.5 680,-764.5 "/>
<text text-anchor="start" x="502" y="-749.3" font-family="Times,serif" font-size="14.00">authenticate_admin!</text>
<text text-anchor="start" x="502" y="-734.3" font-family="Times,serif" font-size="14.00">mimes_for_respond_to</text>
<text text-anchor="start" x="502" y="-719.3" font-family="Times,serif" font-size="14.00">mimes_for_respond_to=</text>
<text text-anchor="start" x="502" y="-704.3" font-family="Times,serif" font-size="14.00">mimes_for_respond_to?</text>
<text text-anchor="start" x="502" y="-689.3" font-family="Times,serif" font-size="14.00">rescue_message</text>
<text text-anchor="start" x="502" y="-674.3" font-family="Times,serif" font-size="14.00">responder</text>
<text text-anchor="start" x="502" y="-659.3" font-family="Times,serif" font-size="14.00">responder=</text>
<text text-anchor="start" x="502" y="-644.3" font-family="Times,serif" font-size="14.00">responder?</text>
<polyline fill="none" stroke="black" points="494,-636.5 680,-636.5 "/>
<polyline fill="none" stroke="black" points="494,-612.5 680,-612.5 "/>
<text text-anchor="start" x="502" y="-597.3" font-family="Times,serif" font-size="14.00">authenticate_user_from_token!</text>
</g>
<!-- Api::V1::ChatsController -->
<g id="node13" class="node"><title>Api::V1::ChatsController</title>
<path fill="none" stroke="black" d="M734,-475.5C734,-475.5 865,-475.5 865,-475.5 871,-475.5 877,-481.5 877,-487.5 877,-487.5 877,-632.5 877,-632.5 877,-638.5 871,-644.5 865,-644.5 865,-644.5 734,-644.5 734,-644.5 728,-644.5 722,-638.5 722,-632.5 722,-632.5 722,-487.5 722,-487.5 722,-481.5 728,-475.5 734,-475.5"/>
<text text-anchor="middle" x="799.5" y="-629.3" font-family="Times,serif" font-size="14.00">Api::V1::ChatsController</text>
<polyline fill="none" stroke="black" points="722,-621.5 877,-621.5 "/>
<text text-anchor="start" x="730" y="-606.3" font-family="Times,serif" font-size="14.00">ampq</text>
<text text-anchor="start" x="730" y="-591.3" font-family="Times,serif" font-size="14.00">notify</text>
<text text-anchor="start" x="730" y="-576.3" font-family="Times,serif" font-size="14.00">send_chat</text>
<text text-anchor="start" x="730" y="-561.3" font-family="Times,serif" font-size="14.00">set_seen</text>
<text text-anchor="start" x="730" y="-546.3" font-family="Times,serif" font-size="14.00">set_status</text>
<text text-anchor="start" x="730" y="-531.3" font-family="Times,serif" font-size="14.00">user_chats</text>
<polyline fill="none" stroke="black" points="722,-523.5 877,-523.5 "/>
<polyline fill="none" stroke="black" points="722,-499.5 877,-499.5 "/>
</g>
<!-- Administrator::StatisticsController -->
<g id="node14" class="node"><title>Administrator::StatisticsController</title>
<path fill="none" stroke="black" d="M259,-646.5C259,-646.5 440,-646.5 440,-646.5 446,-646.5 452,-652.5 452,-658.5 452,-658.5 452,-802.5 452,-802.5 452,-808.5 446,-814.5 440,-814.5 440,-814.5 259,-814.5 259,-814.5 253,-814.5 247,-808.5 247,-802.5 247,-802.5 247,-658.5 247,-658.5 247,-652.5 253,-646.5 259,-646.5"/>
<text text-anchor="middle" x="349.5" y="-799.3" font-family="Times,serif" font-size="14.00">Administrator::StatisticsController</text>
<polyline fill="none" stroke="black" points="247,-791.5 452,-791.5 "/>
<text text-anchor="start" x="255" y="-776.3" font-family="Times,serif" font-size="14.00">index</text>
<text text-anchor="start" x="255" y="-761.3" font-family="Times,serif" font-size="14.00">new_wall_summary</text>
<text text-anchor="start" x="255" y="-746.3" font-family="Times,serif" font-size="14.00">tag_summary</text>
<text text-anchor="start" x="255" y="-731.3" font-family="Times,serif" font-size="14.00">user_summary</text>
<text text-anchor="start" x="255" y="-716.3" font-family="Times,serif" font-size="14.00">wall_statistics</text>
<text text-anchor="start" x="255" y="-701.3" font-family="Times,serif" font-size="14.00">wall_summary</text>
<polyline fill="none" stroke="black" points="247,-693.5 452,-693.5 "/>
<polyline fill="none" stroke="black" points="247,-669.5 452,-669.5 "/>
<text text-anchor="start" x="255" y="-654.3" font-family="Times,serif" font-size="14.00">_layout</text>
</g>
<!-- Administrator::AdministratorController -->
<g id="node15" class="node"><title>Administrator::AdministratorController</title>
<path fill="none" stroke="black" d="M677,-76.5C677,-76.5 886,-76.5 886,-76.5 892,-76.5 898,-82.5 898,-88.5 898,-88.5 898,-158.5 898,-158.5 898,-164.5 892,-170.5 886,-170.5 886,-170.5 677,-170.5 677,-170.5 671,-170.5 665,-164.5 665,-158.5 665,-158.5 665,-88.5 665,-88.5 665,-82.5 671,-76.5 677,-76.5"/>
<text text-anchor="middle" x="781.5" y="-155.3" font-family="Times,serif" font-size="14.00">Administrator::AdministratorController</text>
<polyline fill="none" stroke="black" points="665,-147.5 898,-147.5 "/>
<polyline fill="none" stroke="black" points="665,-123.5 898,-123.5 "/>
<polyline fill="none" stroke="black" points="665,-99.5 898,-99.5 "/>
<text text-anchor="start" x="673" y="-84.3" font-family="Times,serif" font-size="14.00">_layout</text>
</g>
<!-- PublicController -->
<g id="node16" class="node"><title>PublicController</title>
<path fill="none" stroke="black" d="M430,-0.5C430,-0.5 513,-0.5 513,-0.5 519,-0.5 525,-6.5 525,-12.5 525,-12.5 525,-81.5 525,-81.5 525,-87.5 519,-93.5 513,-93.5 513,-93.5 430,-93.5 430,-93.5 424,-93.5 418,-87.5 418,-81.5 418,-81.5 418,-12.5 418,-12.5 418,-6.5 424,-0.5 430,-0.5"/>
<text text-anchor="middle" x="471.5" y="-78.3" font-family="Times,serif" font-size="14.00">PublicController</text>
<polyline fill="none" stroke="black" points="418,-70.5 525,-70.5 "/>
<text text-anchor="start" x="426" y="-55.3" font-family="Times,serif" font-size="14.00">index</text>
<polyline fill="none" stroke="black" points="418,-47.5 525,-47.5 "/>
<polyline fill="none" stroke="black" points="418,-23.5 525,-23.5 "/>
<text text-anchor="start" x="426" y="-8.3" font-family="Times,serif" font-size="14.00">_layout</text>
</g>
<!-- ApplicationController -->
<g id="node17" class="node"><title>ApplicationController</title>
<path fill="none" stroke="black" d="M563,-817.5C563,-817.5 675,-817.5 675,-817.5 681,-817.5 687,-823.5 687,-829.5 687,-829.5 687,-899.5 687,-899.5 687,-905.5 681,-911.5 675,-911.5 675,-911.5 563,-911.5 563,-911.5 557,-911.5 551,-905.5 551,-899.5 551,-899.5 551,-829.5 551,-829.5 551,-823.5 557,-817.5 563,-817.5"/>
<text text-anchor="middle" x="619" y="-896.3" font-family="Times,serif" font-size="14.00">ApplicationController</text>
<polyline fill="none" stroke="black" points="551,-888.5 687,-888.5 "/>
<polyline fill="none" stroke="black" points="551,-864.5 687,-864.5 "/>
<polyline fill="none" stroke="black" points="551,-840.5 687,-840.5 "/>
<text text-anchor="start" x="559" y="-825.3" font-family="Times,serif" font-size="14.00">_layout</text>
</g>
</g>
</svg>
