<?xml version="1.0" encoding="UTF-8" standalone="no"?>
<!DOCTYPE svg PUBLIC "-//W3C//DTD SVG 1.1//EN"
 "http://www.w3.org/Graphics/SVG/1.1/DTD/svg11.dtd">
<!-- Generated by graphviz version 2.36.0 (20140111.2315)
 -->
<!-- Title: models_diagram Pages: 1 -->
<svg width="1669pt" height="294pt"
 viewBox="0.00 0.00 1669.00 294.00" xmlns="http://www.w3.org/2000/svg" xmlns:xlink="http://www.w3.org/1999/xlink">
<g id="graph0" class="graph" transform="scale(1 1) rotate(0) translate(4 290)">
<title>models_diagram</title>
<polygon fill="white" stroke="none" points="-4,4 -4,-290 1665,-290 1665,4 -4,4"/>
<!-- _diagram_info -->
<g id="node1" class="node"><title>_diagram_info</title>
<text text-anchor="start" x="229" y="-271.6" font-family="Times,serif" font-size="13.00">Models diagram</text>
<text text-anchor="start" x="229" y="-257.6" font-family="Times,serif" font-size="13.00">Date: Feb 03 2015 &#45; 18:03</text>
<text text-anchor="start" x="229" y="-243.6" font-family="Times,serif" font-size="13.00">Generated by RailRoady 1.3.0</text>
<text text-anchor="start" x="229" y="-229.6" font-family="Times,serif" font-size="13.00">http://railroady.prestonlee.com</text>
</g>
<!-- Search -->
<g id="node2" class="node"><title>Search</title>
<polygon fill="none" stroke="black" points="475,-272 421,-272 421,-236 475,-236 475,-272"/>
<text text-anchor="middle" x="448" y="-250.3" font-family="Times,serif" font-size="14.00">Search</text>
</g>
<!-- WallInfo -->
<g id="node3" class="node"><title>WallInfo</title>
<ellipse fill="none" stroke="black" cx="413" cy="-166" rx="42.3456" ry="18"/>
<text text-anchor="middle" x="413" y="-162.3" font-family="Times,serif" font-size="14.00">WallInfo</text>
</g>
<!-- Wall -->
<g id="node8" class="node"><title>Wall</title>
<ellipse fill="none" stroke="black" cx="413" cy="-92" rx="28.3955" ry="18"/>
<text text-anchor="middle" x="413" y="-88.3" font-family="Times,serif" font-size="14.00">Wall</text>
</g>
<!-- WallInfo&#45;&gt;Wall -->
<g id="edge1" class="edge"><title>WallInfo&#45;&gt;Wall</title>
<path fill="none" stroke="#7b4935" d="M406.435,-137.864C406.186,-132.005 406.188,-125.812 406.443,-119.96"/>
<polygon fill="#7b4935" stroke="#7b4935" points="406.442,-137.963 402.672,-148.26 406.801,-142.95 407.16,-147.937 407.16,-147.937 407.16,-147.937 406.801,-142.95 411.648,-147.614 406.442,-137.963 406.442,-137.963"/>
<polygon fill="#7b4935" stroke="#7b4935" points="406.446,-119.914 411.661,-110.268 406.81,-114.927 407.173,-109.941 407.173,-109.941 407.173,-109.941 406.81,-114.927 402.685,-109.613 406.446,-119.914 406.446,-119.914"/>
</g>
<!-- Statistic -->
<g id="node4" class="node"><title>Statistic</title>
<ellipse fill="none" stroke="black" cx="1528" cy="-92" rx="38.4949" ry="18"/>
<text text-anchor="middle" x="1528" y="-88.3" font-family="Times,serif" font-size="14.00">Statistic</text>
</g>
<!-- User -->
<g id="node5" class="node"><title>User</title>
<ellipse fill="none" stroke="black" cx="1247" cy="-166" rx="26.949" ry="18"/>
<text text-anchor="middle" x="1247" y="-162.3" font-family="Times,serif" font-size="14.00">User</text>
</g>
<!-- Statistic&#45;&gt;User -->
<g id="edge2" class="edge"><title>Statistic&#45;&gt;User</title>
<path fill="none" stroke="#2eddc5" d="M1492.83,-108.844C1491.54,-109.242 1490.26,-109.628 1489,-110 1417.12,-131.145 1330.93,-149.783 1283.09,-158.96"/>
<polygon fill="#2eddc5" stroke="#2eddc5" points="1493.21,-108.72 1504.11,-109.9 1497.97,-107.171 1502.72,-105.621 1502.72,-105.621 1502.72,-105.621 1497.97,-107.171 1501.33,-101.343 1493.21,-108.72 1493.21,-108.72"/>
<polygon fill="#2eddc5" stroke="#2eddc5" points="1283.03,-158.972 1272.37,-156.402 1278.11,-159.898 1273.2,-160.824 1273.2,-160.824 1273.2,-160.824 1278.11,-159.898 1274.03,-165.247 1283.03,-158.972 1283.03,-158.972"/>
</g>
<!-- User&#45;&gt;Statistic -->
<g id="edge6" class="edge"><title>User&#45;&gt;Statistic</title>
<path fill="none" stroke="#645828" d="M1279.97,-157.066C1324,-147.366 1403.76,-129.78 1471,-110 1476.48,-108.388 1482.25,-106.506 1487.97,-104.594"/>
<ellipse fill="none" stroke="#645828" cx="1275.82" cy="-157.98" rx="4.00001" ry="4.00001"/>
<ellipse fill="#645828" stroke="#645828" cx="1491.9" cy="-103.268" rx="4.00001" ry="4.00001"/>
</g>
<!-- Listing -->
<g id="node6" class="node"><title>Listing</title>
<ellipse fill="none" stroke="black" cx="770" cy="-92" rx="35.6194" ry="18"/>
<text text-anchor="middle" x="770" y="-88.3" font-family="Times,serif" font-size="14.00">Listing</text>
</g>
<!-- User&#45;&gt;Listing -->
<g id="edge3" class="edge"><title>User&#45;&gt;Listing</title>
<path fill="none" stroke="#c2eb39" d="M1211.82,-163.481C1137.36,-159.626 958.746,-146.989 814,-110 811.34,-109.32 808.621,-108.527 805.906,-107.661"/>
<ellipse fill="none" stroke="#c2eb39" cx="1215.97" cy="-163.688" rx="4" ry="4"/>
<polygon fill="#c2eb39" stroke="#c2eb39" points="805.639,-107.568 797.671,-100.034 800.916,-105.927 796.193,-104.285 796.193,-104.285 796.193,-104.285 800.916,-105.927 794.716,-108.535 805.639,-107.568 805.639,-107.568"/>
</g>
<!-- User&#45;&gt;Wall -->
<g id="edge4" class="edge"><title>User&#45;&gt;Wall</title>
<path fill="none" stroke="#3befd8" d="M1211.54,-165.055C1101.22,-164.679 754.598,-159.359 473,-110 464.585,-108.525 455.656,-106.344 447.33,-104.032"/>
<ellipse fill="none" stroke="#3befd8" cx="1215.68" cy="-165.065" rx="4" ry="4"/>
<polygon fill="#3befd8" stroke="#3befd8" points="447.151,-103.98 438.806,-96.8656 442.35,-102.583 437.549,-101.186 437.549,-101.186 437.549,-101.186 442.35,-102.583 436.292,-105.507 447.151,-103.98 447.151,-103.98"/>
</g>
<!-- Contact -->
<g id="node11" class="node"><title>Contact</title>
<ellipse fill="none" stroke="black" cx="1623" cy="-92" rx="38.0212" ry="18"/>
<text text-anchor="middle" x="1623" y="-88.3" font-family="Times,serif" font-size="14.00">Contact</text>
</g>
<!-- User&#45;&gt;Contact -->
<g id="edge12" class="edge"><title>User&#45;&gt;Contact</title>
<path fill="none" stroke="#b22966" d="M1281.6,-160.534C1340.7,-153.117 1463.97,-136.406 1566,-110 1571.01,-108.704 1576.23,-107.113 1581.42,-105.429"/>
<ellipse fill="none" stroke="#b22966" cx="1277.32" cy="-161.067" rx="4.00001" ry="4.00001"/>
<polygon fill="#b22966" stroke="#b22966" points="1581.81,-105.3 1592.72,-106.397 1586.55,-103.715 1591.29,-102.129 1591.29,-102.129 1591.29,-102.129 1586.55,-103.715 1589.86,-97.8613 1581.81,-105.3 1581.81,-105.3"/>
</g>
<!-- Person -->
<g id="node12" class="node"><title>Person</title>
<ellipse fill="none" stroke="black" cx="645" cy="-92" rx="34.1708" ry="18"/>
<text text-anchor="middle" x="645" y="-88.3" font-family="Times,serif" font-size="14.00">Person</text>
</g>
<!-- User&#45;&gt;Person -->
<g id="edge13" class="edge"><title>User&#45;&gt;Person</title>
<path fill="none" stroke="#0b7da4" d="M1211.75,-162.694C1127.3,-156.864 906.92,-139.839 725,-110 711.424,-107.773 696.665,-104.797 683.563,-101.957"/>
<ellipse fill="none" stroke="#0b7da4" cx="1215.97" cy="-162.982" rx="4" ry="4"/>
<ellipse fill="#0b7da4" stroke="#0b7da4" cx="679.551" cy="-101.074" rx="4.00001" ry="4.00001"/>
</g>
<!-- Share -->
<g id="node15" class="node"><title>Share</title>
<ellipse fill="none" stroke="black" cx="854" cy="-92" rx="30.3206" ry="18"/>
<text text-anchor="middle" x="854" y="-88.3" font-family="Times,serif" font-size="14.00">Share</text>
</g>
<!-- User&#45;&gt;Share -->
<g id="edge14" class="edge"><title>User&#45;&gt;Share</title>
<path fill="none" stroke="#1a2acb" d="M1211.76,-162.41C1147.54,-157.054 1007.58,-142.442 894,-110 891.524,-109.293 888.997,-108.472 886.478,-107.581"/>
<ellipse fill="none" stroke="#1a2acb" cx="1215.96" cy="-162.751" rx="4" ry="4"/>
<polygon fill="#1a2acb" stroke="#1a2acb" points="886.242,-107.489 878.538,-99.6856 881.578,-105.686 876.915,-103.883 876.915,-103.883 876.915,-103.883 881.578,-105.686 875.292,-108.08 886.242,-107.489 886.242,-107.489"/>
</g>
<!-- Notification -->
<g id="node18" class="node"><title>Notification</title>
<ellipse fill="none" stroke="black" cx="956" cy="-92" rx="52.9443" ry="18"/>
<text text-anchor="middle" x="956" y="-88.3" font-family="Times,serif" font-size="14.00">Notification</text>
</g>
<!-- User&#45;&gt;Notification -->
<g id="edge8" class="edge"><title>User&#45;&gt;Notification</title>
<path fill="none" stroke="#551fc9" d="M1213.62,-157.335C1168.96,-146.999 1087.34,-127.828 1018,-110 1013.93,-108.953 1009.71,-107.845 1005.48,-106.718"/>
<ellipse fill="none" stroke="#551fc9" cx="1217.62" cy="-158.259" rx="4.00001" ry="4.00001"/>
<polygon fill="#551fc9" stroke="#551fc9" points="1005.3,-106.67 996.809,-99.7258 1000.47,-105.37 995.64,-104.071 995.64,-104.071 995.64,-104.071 1000.47,-105.37 994.471,-108.417 1005.3,-106.67 1005.3,-106.67"/>
</g>
<!-- ChatLog -->
<g id="node19" class="node"><title>ChatLog</title>
<ellipse fill="none" stroke="black" cx="1069" cy="-92" rx="41.394" ry="18"/>
<text text-anchor="middle" x="1069" y="-88.3" font-family="Times,serif" font-size="14.00">ChatLog</text>
</g>
<!-- User&#45;&gt;ChatLog -->
<g id="edge9" class="edge"><title>User&#45;&gt;ChatLog</title>
<path fill="none" stroke="#596cfb" d="M1216.89,-152.821C1186.74,-140.624 1140.22,-121.809 1107.43,-108.543"/>
<ellipse fill="none" stroke="#596cfb" cx="1220.75" cy="-154.381" rx="4.00001" ry="4.00001"/>
<polygon fill="#596cfb" stroke="#596cfb" points="1107.41,-108.538 1099.83,-100.616 1102.78,-106.663 1098.14,-104.788 1098.14,-104.788 1098.14,-104.788 1102.78,-106.663 1096.46,-108.96 1107.41,-108.538 1107.41,-108.538"/>
</g>
<!-- Connector -->
<g id="node22" class="node"><title>Connector</title>
<ellipse fill="none" stroke="black" cx="1247" cy="-18" rx="47.169" ry="18"/>
<text text-anchor="middle" x="1247" y="-14.3" font-family="Times,serif" font-size="14.00">Connector</text>
</g>
<!-- User&#45;&gt;Connector -->
<g id="edge11" class="edge"><title>User&#45;&gt;Connector</title>
<path fill="none" stroke="#d11599" d="M1247,-139.8C1247,-113.827 1247,-73.4489 1247,-46.6216"/>
<ellipse fill="none" stroke="#d11599" cx="1247" cy="-143.966" rx="4" ry="4"/>
<polygon fill="#d11599" stroke="#d11599" points="1247,-46.3779 1251.5,-36.3778 1247,-41.3779 1247,-36.3779 1247,-36.3779 1247,-36.3779 1247,-41.3779 1242.5,-36.3779 1247,-46.3779 1247,-46.3779"/>
<text text-anchor="middle" x="1271" y="-88.3" font-family="Times,serif" font-size="14.00">connects</text>
</g>
<!-- UserTag -->
<g id="node27" class="node"><title>UserTag</title>
<ellipse fill="none" stroke="black" cx="1170" cy="-92" rx="40.4202" ry="18"/>
<text text-anchor="middle" x="1170" y="-88.3" font-family="Times,serif" font-size="14.00">UserTag</text>
</g>
<!-- User&#45;&gt;UserTag -->
<g id="edge7" class="edge"><title>User&#45;&gt;UserTag</title>
<path fill="none" stroke="#022628" d="M1225.63,-145.017C1215.78,-135.805 1204.05,-124.837 1193.9,-115.352"/>
<ellipse fill="none" stroke="#022628" cx="1228.87" cy="-148.043" rx="4.00002" ry="4.00002"/>
<polygon fill="#022628" stroke="#022628" points="1193.82,-115.272 1189.59,-105.155 1190.17,-111.857 1186.51,-108.442 1186.51,-108.442 1186.51,-108.442 1190.17,-111.857 1183.44,-111.729 1193.82,-115.272 1193.82,-115.272"/>
</g>
<!-- Setting -->
<g id="node28" class="node"><title>Setting</title>
<ellipse fill="none" stroke="black" cx="1349" cy="-92" rx="35.6194" ry="18"/>
<text text-anchor="middle" x="1349" y="-88.3" font-family="Times,serif" font-size="14.00">Setting</text>
</g>
<!-- User&#45;&gt;Setting -->
<g id="edge5" class="edge"><title>User&#45;&gt;Setting</title>
<path fill="none" stroke="#e6b507" d="M1268.43,-145.593C1283.13,-134.524 1302.68,-120.776 1318.91,-110.112"/>
<ellipse fill="none" stroke="#e6b507" cx="1264.83" cy="-148.346" rx="4.00002" ry="4.00002"/>
<ellipse fill="#e6b507" stroke="#e6b507" cx="1322.29" cy="-107.924" rx="4.00002" ry="4.00002"/>
</g>
<!-- Rating -->
<g id="node30" class="node"><title>Rating</title>
<ellipse fill="none" stroke="black" cx="1437" cy="-92" rx="34.1708" ry="18"/>
<text text-anchor="middle" x="1437" y="-88.3" font-family="Times,serif" font-size="14.00">Rating</text>
</g>
<!-- User&#45;&gt;Rating -->
<g id="edge10" class="edge"><title>User&#45;&gt;Rating</title>
<path fill="none" stroke="#7458d7" d="M1277.55,-153.578C1307.1,-142.506 1353.16,-125.2 1393,-110 1395.5,-109.048 1398.07,-108.062 1400.66,-107.067"/>
<ellipse fill="none" stroke="#7458d7" cx="1273.78" cy="-154.988" rx="4.00001" ry="4.00001"/>
<polygon fill="#7458d7" stroke="#7458d7" points="1400.69,-107.057 1411.64,-107.664 1405.36,-105.261 1410.02,-103.465 1410.02,-103.465 1410.02,-103.465 1405.36,-105.261 1408.4,-99.2652 1400.69,-107.057 1400.69,-107.057"/>
</g>
<!-- ListingKeyword -->
<g id="node7" class="node"><title>ListingKeyword</title>
<ellipse fill="none" stroke="black" cx="770" cy="-18" rx="68.3664" ry="18"/>
<text text-anchor="middle" x="770" y="-14.3" font-family="Times,serif" font-size="14.00">ListingKeyword</text>
</g>
<!-- Listing&#45;&gt;ListingKeyword -->
<g id="edge15" class="edge"><title>Listing&#45;&gt;ListingKeyword</title>
<path fill="none" stroke="#409f67" d="M763.521,-65.6669C763.192,-59.3573 763.163,-52.5672 763.434,-46.173"/>
<ellipse fill="none" stroke="#409f67" cx="763.852" cy="-69.9489" rx="4" ry="4"/>
<polygon fill="#409f67" stroke="#409f67" points="763.452,-45.9145 768.661,-36.2649 763.813,-40.9275 764.173,-35.9405 764.173,-35.9405 764.173,-35.9405 763.813,-40.9275 759.685,-35.6161 763.452,-45.9145 763.452,-45.9145"/>
</g>
<!-- ListingLink -->
<g id="node17" class="node"><title>ListingLink</title>
<ellipse fill="none" stroke="black" cx="908" cy="-18" rx="51.4931" ry="18"/>
<text text-anchor="middle" x="908" y="-14.3" font-family="Times,serif" font-size="14.00">ListingLink</text>
</g>
<!-- Listing&#45;&gt;ListingLink -->
<g id="edge16" class="edge"><title>Listing&#45;&gt;ListingLink</title>
<path fill="none" stroke="#100e9c" d="M797.942,-73.3425C818.008,-62.2885 845.219,-48.086 867.619,-36.9728"/>
<ellipse fill="none" stroke="#100e9c" cx="794.343" cy="-75.3439" rx="4.00002" ry="4.00002"/>
<polygon fill="#100e9c" stroke="#100e9c" points="867.914,-36.8276 878.874,-36.4561 872.402,-34.6225 876.889,-32.4173 876.889,-32.4173 876.889,-32.4173 872.402,-34.6225 874.905,-28.3786 867.914,-36.8276 867.914,-36.8276"/>
</g>
<!-- ListingKeyword&#45;&gt;Listing -->
<g id="edge17" class="edge"><title>ListingKeyword&#45;&gt;Listing</title>
<path fill="none" stroke="#7ffa2a" d="M776.557,-45.9604C776.812,-51.8125 776.814,-58.0052 776.565,-63.864"/>
<polygon fill="#7ffa2a" stroke="#7ffa2a" points="776.554,-45.9141 780.315,-35.6133 776.19,-40.9273 775.827,-35.9405 775.827,-35.9405 775.827,-35.9405 776.19,-40.9273 771.339,-36.2677 776.554,-45.9141 776.554,-45.9141"/>
<polygon fill="#7ffa2a" stroke="#7ffa2a" points="776.558,-63.9628 771.352,-73.614 776.199,-68.9499 775.84,-73.937 775.84,-73.937 775.84,-73.937 776.199,-68.9499 780.328,-74.26 776.558,-63.9628 776.558,-63.9628"/>
</g>
<!-- Wall&#45;&gt;WallInfo -->
<g id="edge22" class="edge"><title>Wall&#45;&gt;WallInfo</title>
<path fill="none" stroke="#001242" d="M419.478,-118.314C419.84,-125.238 419.841,-132.742 419.479,-139.667"/>
<ellipse fill="none" stroke="#001242" cx="419.137" cy="-113.928" rx="4" ry="4"/>
<ellipse fill="#001242" stroke="#001242" cx="419.148" cy="-143.949" rx="4" ry="4"/>
</g>
<!-- WallImage -->
<g id="node14" class="node"><title>WallImage</title>
<ellipse fill="none" stroke="black" cx="158" cy="-18" rx="50.5427" ry="18"/>
<text text-anchor="middle" x="158" y="-14.3" font-family="Times,serif" font-size="14.00">WallImage</text>
</g>
<!-- Wall&#45;&gt;WallImage -->
<g id="edge19" class="edge"><title>Wall&#45;&gt;WallImage</title>
<path fill="none" stroke="#915233" d="M378.999,-83.1377C338.228,-72.4728 268.499,-52.82 209,-36 206.122,-35.1864 203.166,-34.3504 200.195,-33.5064"/>
<ellipse fill="none" stroke="#915233" cx="382.883" cy="-84.1441" rx="4.00001" ry="4.00001"/>
<ellipse fill="#915233" stroke="#915233" cx="196.18" cy="-32.3608" rx="4.00001" ry="4.00001"/>
</g>
<!-- ReportAbuse -->
<g id="node20" class="node"><title>ReportAbuse</title>
<ellipse fill="none" stroke="black" cx="284" cy="-18" rx="57.2927" ry="18"/>
<text text-anchor="middle" x="284" y="-14.3" font-family="Times,serif" font-size="14.00">ReportAbuse</text>
</g>
<!-- Wall&#45;&gt;ReportAbuse -->
<g id="edge23" class="edge"><title>Wall&#45;&gt;ReportAbuse</title>
<path fill="none" stroke="#5279ab" d="M385.171,-75.4674C366.024,-64.7808 340.421,-50.4905 319.762,-38.9599"/>
<ellipse fill="none" stroke="#5279ab" cx="388.781" cy="-77.4825" rx="4.00002" ry="4.00002"/>
<polygon fill="#5279ab" stroke="#5279ab" points="319.684,-38.9166 313.145,-30.1135 315.318,-36.4797 310.952,-34.0429 310.952,-34.0429 310.952,-34.0429 315.318,-36.4797 308.759,-37.9723 319.684,-38.9166 319.684,-38.9166"/>
</g>
<!-- TaggedUser -->
<g id="node23" class="node"><title>TaggedUser</title>
<ellipse fill="none" stroke="black" cx="413" cy="-18" rx="53.4184" ry="18"/>
<text text-anchor="middle" x="413" y="-14.3" font-family="Times,serif" font-size="14.00">TaggedUser</text>
</g>
<!-- Wall&#45;&gt;TaggedUser -->
<g id="edge21" class="edge"><title>Wall&#45;&gt;TaggedUser</title>
<path fill="none" stroke="#08698c" d="M406.556,-66.3208C406.2,-59.946 406.155,-53.0438 406.419,-46.5333"/>
<ellipse fill="none" stroke="#08698c" cx="406.878" cy="-70.3137" rx="4" ry="4"/>
<polygon fill="#08698c" stroke="#08698c" points="406.45,-46.0838 411.644,-36.4258 406.803,-41.0962 407.155,-36.1086 407.155,-36.1086 407.155,-36.1086 406.803,-41.0962 402.666,-35.7915 406.45,-46.0838 406.45,-46.0838"/>
</g>
<!-- WallOwner -->
<g id="node32" class="node"><title>WallOwner</title>
<ellipse fill="none" stroke="black" cx="537" cy="-18" rx="51.4931" ry="18"/>
<text text-anchor="middle" x="537" y="-14.3" font-family="Times,serif" font-size="14.00">WallOwner</text>
</g>
<!-- Wall&#45;&gt;WallOwner -->
<g id="edge20" class="edge"><title>Wall&#45;&gt;WallOwner</title>
<path fill="none" stroke="#57fb3c" d="M437.423,-73.3955C455.433,-62.2809 480.077,-47.9674 500.405,-36.8131"/>
<ellipse fill="none" stroke="#57fb3c" cx="433.772" cy="-75.6753" rx="4.00002" ry="4.00002"/>
<ellipse fill="#57fb3c" stroke="#57fb3c" cx="504.164" cy="-34.7691" rx="4.00002" ry="4.00002"/>
</g>
<!-- WallItem -->
<g id="node33" class="node"><title>WallItem</title>
<ellipse fill="none" stroke="black" cx="44" cy="-18" rx="44.271" ry="18"/>
<text text-anchor="middle" x="44" y="-14.3" font-family="Times,serif" font-size="14.00">WallItem</text>
</g>
<!-- Wall&#45;&gt;WallItem -->
<g id="edge18" class="edge"><title>Wall&#45;&gt;WallItem</title>
<path fill="none" stroke="#099643" d="M377.067,-87.0185C316.682,-79.362 192.03,-61.0959 89,-36 87.0662,-35.529 85.1005,-35.0261 83.1245,-34.4994"/>
<ellipse fill="none" stroke="#099643" cx="381.183" cy="-87.5323" rx="4.00001" ry="4.00001"/>
<polygon fill="#099643" stroke="#099643" points="82.8793,-34.43 74.4848,-27.3742 78.0687,-33.0669 73.258,-31.7037 73.258,-31.7037 73.258,-31.7037 78.0687,-33.0669 72.0313,-36.0333 82.8793,-34.43 82.8793,-34.43"/>
</g>
<!-- CName -->
<g id="node9" class="node"><title>CName</title>
<ellipse fill="none" stroke="black" cx="645" cy="-18" rx="38.0212" ry="18"/>
<text text-anchor="middle" x="645" y="-14.3" font-family="Times,serif" font-size="14.00">CName</text>
</g>
<!-- CName&#45;&gt;Person -->
<g id="edge24" class="edge"><title>CName&#45;&gt;Person</title>
<path fill="none" stroke="#b31c60" d="M651.557,-45.9604C651.812,-51.8125 651.814,-58.0052 651.565,-63.864"/>
<polygon fill="#b31c60" stroke="#b31c60" points="651.554,-45.9141 655.315,-35.6133 651.19,-40.9273 650.827,-35.9405 650.827,-35.9405 650.827,-35.9405 651.19,-40.9273 646.339,-36.2677 651.554,-45.9141 651.554,-45.9141"/>
<polygon fill="#b31c60" stroke="#b31c60" points="651.558,-63.9628 646.352,-73.614 651.199,-68.9499 650.84,-73.937 650.84,-73.937 650.84,-73.937 651.199,-68.9499 655.328,-74.26 651.558,-63.9628 651.558,-63.9628"/>
</g>
<!-- ChatBlock -->
<g id="node10" class="node"><title>ChatBlock</title>
<ellipse fill="none" stroke="black" cx="1027" cy="-18" rx="48.1437" ry="18"/>
<text text-anchor="middle" x="1027" y="-14.3" font-family="Times,serif" font-size="14.00">ChatBlock</text>
</g>
<!-- ChatBlock&#45;&gt;ChatLog -->
<g id="edge25" class="edge"><title>ChatBlock&#45;&gt;ChatLog</title>
<path fill="none" stroke="#7e2ee3" d="M1048.15,-44.1663C1052.43,-50.8878 1056.69,-58.165 1060.31,-64.9338"/>
<polygon fill="#7e2ee3" stroke="#7e2ee3" points="1047.89,-43.7782 1046.12,-32.9574 1045.13,-39.6115 1042.37,-35.4449 1042.37,-35.4449 1042.37,-35.4449 1045.13,-39.6115 1038.62,-37.9325 1047.89,-43.7782 1047.89,-43.7782"/>
<polygon fill="#7e2ee3" stroke="#7e2ee3" points="1060.36,-65.0222 1060.87,-75.9758 1062.62,-69.4796 1064.89,-73.937 1064.89,-73.937 1064.89,-73.937 1062.62,-69.4796 1068.9,-71.8982 1060.36,-65.0222 1060.36,-65.0222"/>
</g>
<!-- Contact&#45;&gt;User -->
<g id="edge26" class="edge"><title>Contact&#45;&gt;User</title>
<path fill="none" stroke="#cf2c2b" d="M1588.46,-108.786C1586.96,-109.213 1585.47,-109.619 1584,-110 1477,-137.694 1346.62,-154.724 1283.89,-161.553"/>
<polygon fill="#cf2c2b" stroke="#cf2c2b" points="1588.76,-108.693 1599.64,-110.028 1593.54,-107.211 1598.31,-105.73 1598.31,-105.73 1598.31,-105.73 1593.54,-107.211 1596.98,-101.432 1588.76,-108.693 1588.76,-108.693"/>
<polygon fill="#cf2c2b" stroke="#cf2c2b" points="1283.65,-161.579 1273.23,-158.161 1278.67,-162.108 1273.7,-162.636 1273.7,-162.636 1273.7,-162.636 1278.67,-162.108 1274.18,-167.111 1283.65,-161.579 1283.65,-161.579"/>
</g>
<!-- Person&#45;&gt;CName -->
<g id="edge27" class="edge"><title>Person&#45;&gt;CName</title>
<path fill="none" stroke="#2a662c" d="M638.521,-65.6669C638.192,-59.3573 638.163,-52.5672 638.434,-46.173"/>
<ellipse fill="none" stroke="#2a662c" cx="638.852" cy="-69.9489" rx="4" ry="4"/>
<polygon fill="#2a662c" stroke="#2a662c" points="638.452,-45.9145 643.661,-36.2649 638.813,-40.9275 639.173,-35.9405 639.173,-35.9405 639.173,-35.9405 638.813,-40.9275 634.685,-35.6161 638.452,-45.9145 638.452,-45.9145"/>
</g>
<!-- SmsLog -->
<g id="node13" class="node"><title>SmsLog</title>
<ellipse fill="none" stroke="black" cx="617" cy="-254" rx="39.9464" ry="18"/>
<text text-anchor="middle" x="617" y="-250.3" font-family="Times,serif" font-size="14.00">SmsLog</text>
</g>
<!-- WallImage&#45;&gt;Wall -->
<g id="edge28" class="edge"><title>WallImage&#45;&gt;Wall</title>
<path fill="none" stroke="#c7b6cc" d="M209.375,-31.0376C215.352,-32.7056 221.327,-34.3962 227,-36 280.216,-51.0438 341.615,-68.3537 378.99,-79.4723"/>
<polygon fill="#c7b6cc" stroke="#c7b6cc" points="209.004,-30.9351 200.564,-23.9337 204.185,-29.6031 199.365,-28.2711 199.365,-28.2711 199.365,-28.2711 204.185,-29.6031 198.167,-32.6085 209.004,-30.9351 209.004,-30.9351"/>
<polygon fill="#c7b6cc" stroke="#c7b6cc" points="379.29,-79.5623 387.575,-86.7472 384.079,-80.9997 388.868,-82.4371 388.868,-82.4371 388.868,-82.4371 384.079,-80.9997 390.162,-78.1271 379.29,-79.5623 379.29,-79.5623"/>
</g>
<!-- Tag -->
<g id="node16" class="node"><title>Tag</title>
<ellipse fill="none" stroke="black" cx="526" cy="-166" rx="27" ry="18"/>
<text text-anchor="middle" x="526" y="-162.3" font-family="Times,serif" font-size="14.00">Tag</text>
</g>
<!-- Tag&#45;&gt;Listing -->
<g id="edge31" class="edge"><title>Tag&#45;&gt;Listing</title>
<path fill="none" stroke="#4f0c1b" d="M558.107,-155.526C602.46,-142.438 682.425,-118.842 730.421,-104.679"/>
<ellipse fill="none" stroke="#4f0c1b" cx="554.124" cy="-156.701" rx="4.00001" ry="4.00001"/>
<polygon fill="#4f0c1b" stroke="#4f0c1b" points="730.562,-104.637 741.427,-106.123 735.358,-103.222 740.153,-101.807 740.153,-101.807 740.153,-101.807 735.358,-103.222 738.88,-97.4912 730.562,-104.637 730.562,-104.637"/>
</g>
<!-- Tag&#45;&gt;Wall -->
<g id="edge29" class="edge"><title>Tag&#45;&gt;Wall</title>
<path fill="none" stroke="#2e9537" d="M500.143,-148.524C482.571,-137.328 459.33,-122.52 441.269,-111.012"/>
<ellipse fill="none" stroke="#2e9537" cx="503.713" cy="-150.799" rx="4.00002" ry="4.00002"/>
<polygon fill="#2e9537" stroke="#2e9537" points="440.788,-110.705 434.772,-101.537 436.571,-108.019 432.354,-105.332 432.354,-105.332 432.354,-105.332 436.571,-108.019 429.936,-109.127 440.788,-110.705 440.788,-110.705"/>
</g>
<!-- Keyword -->
<g id="node31" class="node"><title>Keyword</title>
<ellipse fill="none" stroke="black" cx="526" cy="-92" rx="43.319" ry="18"/>
<text text-anchor="middle" x="526" y="-88.3" font-family="Times,serif" font-size="14.00">Keyword</text>
</g>
<!-- Tag&#45;&gt;Keyword -->
<g id="edge30" class="edge"><title>Tag&#45;&gt;Keyword</title>
<path fill="none" stroke="#799d1c" d="M526,-139.792C526,-133.58 526,-126.896 526,-120.579"/>
<ellipse fill="none" stroke="#799d1c" cx="526" cy="-143.937" rx="4" ry="4"/>
<polygon fill="#799d1c" stroke="#799d1c" points="526,-120.441 530.5,-110.441 526,-115.441 526,-110.441 526,-110.441 526,-110.441 526,-115.441 521.5,-110.441 526,-120.441 526,-120.441"/>
</g>
<!-- ListingLink&#45;&gt;Listing -->
<g id="edge32" class="edge"><title>ListingLink&#45;&gt;Listing</title>
<path fill="none" stroke="#df0690" d="M875.493,-39.1593C854.408,-50.6603 827.045,-64.8555 805.408,-75.4823"/>
<polygon fill="#df0690" stroke="#df0690" points="875.644,-39.0762 886.575,-38.1922 880.024,-36.6635 884.403,-34.2508 884.403,-34.2508 884.403,-34.2508 880.024,-36.6635 882.232,-30.3093 875.644,-39.0762 875.644,-39.0762"/>
<polygon fill="#df0690" stroke="#df0690" points="805.291,-75.539 794.33,-75.8599 800.794,-77.7234 796.296,-79.9078 796.296,-79.9078 796.296,-79.9078 800.794,-77.7234 798.262,-83.9556 805.291,-75.539 805.291,-75.539"/>
</g>
<!-- ChatLog&#45;&gt;ChatBlock -->
<g id="edge34" class="edge"><title>ChatLog&#45;&gt;ChatBlock</title>
<path fill="none" stroke="#5253f3" d="M1049.32,-68.119C1044.23,-60.2905 1039.07,-51.5031 1034.88,-43.5485"/>
<ellipse fill="none" stroke="#5253f3" cx="1051.73" cy="-71.7015" rx="4.00002" ry="4.00002"/>
<ellipse fill="#5253f3" stroke="#5253f3" cx="1032.85" cy="-39.5109" rx="4.00002" ry="4.00002"/>
</g>
<!-- ChatItem -->
<g id="node21" class="node"><title>ChatItem</title>
<ellipse fill="none" stroke="black" cx="1137" cy="-18" rx="44.2946" ry="18"/>
<text text-anchor="middle" x="1137" y="-14.3" font-family="Times,serif" font-size="14.00">ChatItem</text>
</g>
<!-- ChatLog&#45;&gt;ChatItem -->
<g id="edge33" class="edge"><title>ChatLog&#45;&gt;ChatItem</title>
<path fill="none" stroke="#676621" d="M1084.35,-68.0336C1091.88,-59.4613 1101.07,-49.7491 1109.7,-41.243"/>
<ellipse fill="none" stroke="#676621" cx="1081.58" cy="-71.2656" rx="4.00002" ry="4.00002"/>
<polygon fill="#676621" stroke="#676621" points="1109.88,-41.0722 1120.2,-37.3796 1113.48,-37.6048 1117.08,-34.1374 1117.08,-34.1374 1117.08,-34.1374 1113.48,-37.6048 1113.96,-30.8953 1109.88,-41.0722 1109.88,-41.0722"/>
</g>
<!-- ChatItem&#45;&gt;ChatLog -->
<g id="edge35" class="edge"><title>ChatItem&#45;&gt;ChatLog</title>
<path fill="none" stroke="#cf97e6" d="M1120.48,-43.2915C1113.1,-51.6206 1104.29,-60.8881 1096.03,-69.0232"/>
<polygon fill="#cf97e6" stroke="#cf97e6" points="1120.53,-43.2336 1130.47,-38.6 1123.8,-39.4473 1127.06,-35.661 1127.06,-35.661 1127.06,-35.661 1123.8,-39.4473 1123.65,-32.722 1120.53,-43.2336 1120.53,-43.2336"/>
<polygon fill="#cf97e6" stroke="#cf97e6" points="1095.89,-69.1531 1085.56,-72.8367 1092.29,-72.6173 1088.68,-76.0816 1088.68,-76.0816 1088.68,-76.0816 1092.29,-72.6173 1091.8,-79.3264 1095.89,-69.1531 1095.89,-69.1531"/>
</g>
<!-- TaggedUser&#45;&gt;Wall -->
<g id="edge36" class="edge"><title>TaggedUser&#45;&gt;Wall</title>
<path fill="none" stroke="#068235" d="M419.568,-46.2097C419.817,-52.1048 419.811,-58.3348 419.55,-64.2134"/>
<polygon fill="#068235" stroke="#068235" points="419.559,-46.0831 423.333,-35.7873 419.202,-41.0959 418.845,-36.1086 418.845,-36.1086 418.845,-36.1086 419.202,-41.0959 414.356,-36.43 419.559,-46.0831 419.559,-46.0831"/>
<polygon fill="#068235" stroke="#068235" points="419.541,-64.3282 414.313,-73.9676 419.171,-69.3145 418.801,-74.3008 418.801,-74.3008 418.801,-74.3008 419.171,-69.3145 423.288,-74.6339 419.541,-64.3282 419.541,-64.3282"/>
</g>
<!-- Code -->
<g id="node24" class="node"><title>Code</title>
<polygon fill="none" stroke="black" points="729,-272 675,-272 675,-236 729,-236 729,-272"/>
<text text-anchor="middle" x="702" y="-250.3" font-family="Times,serif" font-size="14.00">Code</text>
</g>
<!-- ChatArchive -->
<g id="node25" class="node"><title>ChatArchive</title>
<ellipse fill="none" stroke="black" cx="803" cy="-254" rx="55.3436" ry="18"/>
<text text-anchor="middle" x="803" y="-250.3" font-family="Times,serif" font-size="14.00">ChatArchive</text>
</g>
<!-- Cron -->
<g id="node26" class="node"><title>Cron</title>
<polygon fill="none" stroke="black" points="931,-272 877,-272 877,-236 931,-236 931,-272"/>
<text text-anchor="middle" x="904" y="-250.3" font-family="Times,serif" font-size="14.00">Cron</text>
</g>
<!-- UserTag&#45;&gt;Connector -->
<g id="edge37" class="edge"><title>UserTag&#45;&gt;Connector</title>
<path fill="none" stroke="#220069" d="M1192.71,-69.7678C1202.14,-60.9434 1213.11,-50.6869 1222.71,-41.7121"/>
<ellipse fill="none" stroke="#220069" cx="1189.63" cy="-72.6451" rx="4.00002" ry="4.00002"/>
<polygon fill="#220069" stroke="#220069" points="1222.75,-41.671 1233.13,-38.128 1226.41,-38.2561 1230.06,-34.8411 1230.06,-34.8411 1230.06,-34.8411 1226.41,-38.2561 1226.99,-31.5542 1222.75,-41.671 1222.75,-41.671"/>
</g>
<!-- Setting&#45;&gt;User -->
<g id="edge38" class="edge"><title>Setting&#45;&gt;User</title>
<path fill="none" stroke="#c4907b" d="M1324.84,-114.454C1310.21,-125.357 1291.58,-138.401 1276.14,-148.506"/>
<polygon fill="#c4907b" stroke="#c4907b" points="1324.97,-114.359 1335.66,-111.907 1328.95,-111.339 1332.94,-108.32 1332.94,-108.32 1332.94,-108.32 1328.95,-111.339 1330.22,-104.733 1324.97,-114.359 1324.97,-114.359"/>
<polygon fill="#c4907b" stroke="#c4907b" points="1275.91,-148.656 1265.07,-150.28 1271.71,-151.36 1267.5,-154.065 1267.5,-154.065 1267.5,-154.065 1271.71,-151.36 1269.94,-157.85 1275.91,-148.656 1275.91,-148.656"/>
</g>
<!-- AppSetting -->
<g id="node29" class="node"><title>AppSetting</title>
<ellipse fill="none" stroke="black" cx="1000" cy="-254" rx="50.5427" ry="18"/>
<text text-anchor="middle" x="1000" y="-250.3" font-family="Times,serif" font-size="14.00">AppSetting</text>
</g>
<!-- RatingTag -->
<g id="node35" class="node"><title>RatingTag</title>
<ellipse fill="none" stroke="black" cx="1399" cy="-18" rx="48.1437" ry="18"/>
<text text-anchor="middle" x="1399" y="-14.3" font-family="Times,serif" font-size="14.00">RatingTag</text>
</g>
<!-- Rating&#45;&gt;RatingTag -->
<g id="edge40" class="edge"><title>Rating&#45;&gt;RatingTag</title>
<path fill="none" stroke="#beb7f3" d="M1418.8,-68.4737C1414.42,-61.121 1410,-52.8919 1406.35,-45.2877"/>
<ellipse fill="none" stroke="#beb7f3" cx="1420.97" cy="-71.9765" rx="4.00002" ry="4.00002"/>
<polygon fill="#beb7f3" stroke="#beb7f3" points="1406.31,-45.2103 1406.28,-34.2445 1404.25,-40.6566 1402.18,-36.1029 1402.18,-36.1029 1402.18,-36.1029 1404.25,-40.6566 1398.08,-37.9614 1406.31,-45.2103 1406.31,-45.2103"/>
</g>
<!-- RatingOwner -->
<g id="node36" class="node"><title>RatingOwner</title>
<ellipse fill="none" stroke="black" cx="1523" cy="-18" rx="57.2688" ry="18"/>
<text text-anchor="middle" x="1523" y="-14.3" font-family="Times,serif" font-size="14.00">RatingOwner</text>
</g>
<!-- Rating&#45;&gt;RatingOwner -->
<g id="edge39" class="edge"><title>Rating&#45;&gt;RatingOwner</title>
<path fill="none" stroke="#d0688a" d="M1456.59,-69.3708C1467.23,-59.8776 1480.5,-48.7893 1492.43,-39.4365"/>
<ellipse fill="none" stroke="#d0688a" cx="1453.33" cy="-72.3317" rx="4.00002" ry="4.00002"/>
<ellipse fill="#d0688a" stroke="#d0688a" cx="1495.74" cy="-36.886" rx="4.00002" ry="4.00002"/>
</g>
<!-- WallOwner&#45;&gt;Wall -->
<g id="edge41" class="edge"><title>WallOwner&#45;&gt;Wall</title>
<path fill="none" stroke="#3731aa" d="M507.135,-39.9381C488.163,-51.4776 463.755,-65.536 444.477,-75.9779"/>
<polygon fill="#3731aa" stroke="#3731aa" points="507.181,-39.9098 518.056,-38.502 511.439,-37.2896 515.698,-34.6694 515.698,-34.6694 515.698,-34.6694 511.439,-37.2896 513.34,-30.8368 507.181,-39.9098 507.181,-39.9098"/>
<polygon fill="#3731aa" stroke="#3731aa" points="444.198,-76.1271 433.257,-76.8672 439.787,-78.482 435.376,-80.8369 435.376,-80.8369 435.376,-80.8369 439.787,-78.482 437.495,-84.8065 444.198,-76.1271 444.198,-76.1271"/>
</g>
<!-- WallItem&#45;&gt;Wall -->
<g id="edge42" class="edge"><title>WallItem&#45;&gt;Wall</title>
<path fill="none" stroke="#6ababd" d="M90.4179,-31.5087C96.0104,-33.1374 101.628,-34.6916 107,-36 202.969,-59.3761 317.7,-76.8265 375.732,-85.2962"/>
<polygon fill="#6ababd" stroke="#6ababd" points="90.0212,-31.3904 81.7237,-24.2208 85.2296,-29.9619 80.438,-28.5333 80.438,-28.5333 80.438,-28.5333 85.2296,-29.9619 79.1523,-32.8457 90.0212,-31.3904 90.0212,-31.3904"/>
<polygon fill="#6ababd" stroke="#6ababd" points="375.995,-85.3343 385.244,-91.2258 380.943,-86.0534 385.891,-86.7725 385.891,-86.7725 385.891,-86.7725 380.943,-86.0534 386.538,-82.3193 375.995,-85.3343 375.995,-85.3343"/>
</g>
<!-- Group -->
<g id="node34" class="node"><title>Group</title>
<ellipse fill="none" stroke="black" cx="526" cy="-254" rx="33.2209" ry="18"/>
<text text-anchor="middle" x="526" y="-250.3" font-family="Times,serif" font-size="14.00">Group</text>
</g>
<!-- Group&#45;&gt;Tag -->
<g id="edge43" class="edge"><title>Group&#45;&gt;Tag</title>
<path fill="none" stroke="#f8c9a8" d="M526,-227.339C526,-216.855 526,-204.718 526,-194.091"/>
<ellipse fill="none" stroke="#f8c9a8" cx="526" cy="-231.597" rx="4" ry="4"/>
<polygon fill="#f8c9a8" stroke="#f8c9a8" points="526,-194.084 530.5,-184.084 526,-189.084 526,-184.084 526,-184.084 526,-184.084 526,-189.084 521.5,-184.084 526,-194.084 526,-194.084"/>
</g>
<!-- RatingTag&#45;&gt;Rating -->
<g id="edge44" class="edge"><title>RatingTag&#45;&gt;Rating</title>
<path fill="none" stroke="#8c899b" d="M1418.7,-44.0719C1422.56,-50.7189 1426.38,-57.9151 1429.61,-64.629"/>
<polygon fill="#8c899b" stroke="#8c899b" points="1418.65,-43.9892 1417.3,-33.1068 1416.05,-39.7171 1413.45,-35.4449 1413.45,-35.4449 1413.45,-35.4449 1416.05,-39.7171 1409.61,-37.783 1418.65,-43.9892 1418.65,-43.9892"/>
<polygon fill="#8c899b" stroke="#8c899b" points="1429.7,-64.83 1429.74,-75.7958 1431.77,-69.3835 1433.83,-73.937 1433.83,-73.937 1433.83,-73.937 1431.77,-69.3835 1437.93,-72.0782 1429.7,-64.83 1429.7,-64.83"/>
</g>
<!-- RatingOwner&#45;&gt;Rating -->
<g id="edge45" class="edge"><title>RatingOwner&#45;&gt;Rating</title>
<path fill="none" stroke="#e17cb0" d="M1501.25,-42.5492C1490.62,-51.9378 1477.76,-62.615 1466.3,-71.5524"/>
<polygon fill="#e17cb0" stroke="#e17cb0" points="1501.46,-42.3638 1511.9,-39.0144 1505.17,-39.0174 1508.89,-35.6709 1508.89,-35.6709 1508.89,-35.6709 1505.17,-39.0174 1505.87,-32.3274 1501.46,-42.3638 1501.46,-42.3638"/>
<polygon fill="#e17cb0" stroke="#e17cb0" points="1466.08,-71.7196 1455.4,-74.2195 1462.11,-74.7568 1458.14,-77.7941 1458.14,-77.7941 1458.14,-77.7941 1462.11,-74.7568 1460.87,-81.3687 1466.08,-71.7196 1466.08,-71.7196"/>
</g>
<!-- Chat -->
<g id="node37" class="node"><title>Chat</title>
<ellipse fill="none" stroke="black" cx="1096" cy="-254" rx="26.949" ry="18"/>
<text text-anchor="middle" x="1096" y="-250.3" font-family="Times,serif" font-size="14.00">Chat</text>
</g>
</g>
</svg>
